PathFileType	4	(X/Y/Z)	C:\Users\Basilio\Documents\Thesis Gigler\squatting_fais\c3dfiles\054\SLS_back_pre2\markers_experimental.trc
DataRate	CameraRate	NumFrames	NumMarkers	Units	OrigDataRate	OrigDataStartFrame	OrigNumFrames
200.000000	200.000000	4	61	mm	200.000000	191	1535
Frame#	Time	FHD			LBHD			RBHD			C7			T10			CLAV			LSHO			LUUPA			LMUPA			LDUPA			LLEP			LMEP			LRAD			LUL			LRFIN			RSHO			RUPA1			RMUPA			RDUPA			RLEP			RMEP			RRAD			RUL			RUFIN			LASI			RASI			USACR			LSACR			RSACR			LTHI1			LTHI2			LTHI3			LTHI4			LLFC			LMFC			LTIB1			LTIB2			LTIB3			LTIB4			LLMAL			LMMAL			LHEE			LMT1			LMT2			LMT5			RTHI			RTHI2			RTHI3			RTHI4			RLFC			RMFC			RTIB1			RTIB2			RTIB3			RTIB4			RLMAL			RMMAL			RHEE			RMT1			RMT2			RMT5			
		X1	Y1	Z1	X2	Y2	Z2	X3	Y3	Z3	X4	Y4	Z4	X5	Y5	Z5	X6	Y6	Z6	X7	Y7	Z7	X8	Y8	Z8	X9	Y9	Z9	X10	Y10	Z10	X11	Y11	Z11	X12	Y12	Z12	X13	Y13	Z13	X14	Y14	Z14	X15	Y15	Z15	X16	Y16	Z16	X17	Y17	Z17	X18	Y18	Z18	X19	Y19	Z19	X20	Y20	Z20	X21	Y21	Z21	X22	Y22	Z22	X23	Y23	Z23	X24	Y24	Z24	X25	Y25	Z25	X26	Y26	Z26	X27	Y27	Z27	X28	Y28	Z28	X29	Y29	Z29	X30	Y30	Z30	X31	Y31	Z31	X32	Y32	Z32	X33	Y33	Z33	X34	Y34	Z34	X35	Y35	Z35	X36	Y36	Z36	X37	Y37	Z37	X38	Y38	Z38	X39	Y39	Z39	X40	Y40	Z40	X41	Y41	Z41	X42	Y42	Z42	X43	Y43	Z43	X44	Y44	Z44	X45	Y45	Z45	X46	Y46	Z46	X47	Y47	Z47	X48	Y48	Z48	X49	Y49	Z49	X50	Y50	Z50	X51	Y51	Z51	X52	Y52	Z52	X53	Y53	Z53	X54	Y54	Z54	X55	Y55	Z55	X56	Y56	Z56	X57	Y57	Z57	X58	Y58	Z58	X59	Y59	Z59	X60	Y60	Z60	X61	Y61	Z61	

192	0.9550000000000001	-202.4526977539063	1797.0478515625	-1022.117126464844	-362.7860717773438	1727.28466796875	-1079.958129882813	-369.0206909179688	1726.970581054688	-939.560974121094	-392.353485107422	1560.7568359375	-996.389831542969	-404.8020324707032	1228.29150390625	-986.466979980469	-245.9048156738282	1509.278564453125	-1006.797302246094	-330.3961181640626	1543.2412109375	-1166.2490234375	-312.4618225097657	1321.47607421875	-1284.104370117188	-263.6876831054688	1321.746948242188	-1284.015380859375	-275.1860961914063	1265.01904296875	-1298.462036132813	-237.3542480468751	1225.01025390625	-1304.948608398438	-269.1054077148438	1185.353515625	-1239.922119140625	-25.0283317565918	1071.126953125	-1251.1162109375	-51.88264846801759	1029.838623046875	-1311.629638671875	48.26822662353517	1019.069580078125	-1274.640258789063	-300.8619384765626	1552.686645507813	-838.1567382812502	-282.8022766113282	1336.702270507813	-703.1005249023439	-235.9243927001954	1326.319946289063	-707.3511352539064	-257.7805175781251	1273.275146484375	-688.3579711914064	-235.7068176269532	1232.7802734375	-682.5198364257814	-267.2321166992188	1197.830810546875	-750.8450927734376	4.99332094192505	1150.979736328125	-815.4322509765627	0.8149341344833376	1121.35009765625	-741.5906372070314	84.06668090820314	1125.987670898438	-818.7723388671877	-210.037826538086	1062.096801757813	-1107.794677734375	-210.9609680175782	1067.578125	-855.6682739257815	-401.8306579589845	1141.396484375	-983.8913574218752	-406.283416748047	1109.219604492188	-1011.658203125	-404.782684326172	1108.750122070313	-955.2003173828127	-297.1034545898438	818.845397949219	-1185.297241210938	-268.1959533691407	739.4263916015626	-1175.46533203125	-220.9893646240235	742.2647705078126	-1166.447265625	-299.3208312988282	688.6033935546876	-1158.931274414063	-307.9444885253907	534.4979248046876	-1130.755493164063	-282.7152099609376	534.6944580078126	-993.632507324219	-273.6268310546876	370.8257751464844	-1071.804931640625	-323.4360046386719	323.6799621582032	-1128.31298828125	-285.6340637207032	321.4615478515626	-1102.337890625	-295.7007446289063	245.5844116210938	-1064.985107421875	-359.5759582519532	112.6328964233399	-1099.956665039063	-328.7225341796876	132.510971069336	-1009.513366699219	-428.4981384277345	102.2892532348633	-1041.772094726563	-216.6119384765626	57.00576019287111	-1019.619323730469	-208.8535308837891	56.20748138427736	-1068.792724609375	-260.8549499511719	39.96603775024415	-1120.641479492188	-292.0138244628907	768.255310058594	-756.3425903320314	-253.5744628906251	714.5263671875001	-747.5444946289064	-219.9841308593751	715.3732910156251	-751.9038696289064	-278.4558410644532	635.1394042968751	-758.6715087890626	-286.4383850097657	546.5303955078126	-751.9442749023439	-231.4339447021485	531.0238037109376	-878.4041137695315	-238.6012115478516	435.2105102539064	-745.2360229492189	-317.7613525390626	372.9269104003907	-709.8048095703126	-273.2112731933594	361.0135192871094	-714.5969238281251	-261.9324645996094	306.9800109863282	-732.4409790039064	-340.4767456054688	137.3067321777344	-695.9797363281251	-297.4369201660157	145.3280334472657	-781.982116699219	-404.0621032714845	117.780746459961	-753.8358764648439	-192.1167755126954	51.17886352539064	-760.6257934570314	-190.3837280273438	50.87396240234376	-712.9625244140626	-242.9992218017579	40.96943664550782	-666.9411010742189	
193	0.96	-202.4962310791016	1797.174194335938	-1023.313293457031	-362.8053894042969	1727.2841796875	-1081.089233398438	-368.9284362792969	1727.049072265625	-940.7495117187502	-392.4441223144532	1560.959594726563	-997.5999755859377	-405.3772277832032	1228.487426757813	-987.3795166015627	-246.1213531494141	1509.297241210938	-1008.051025390625	-330.4163818359376	1543.373413085938	-1167.3916015625	-311.9278564453126	1321.86669921875	-1285.49853515625	-262.9164428710938	1322.319702148438	-1285.324340820313	-274.6283569335938	1265.599853515625	-1299.818969726563	-236.2317810058594	1225.676879882813	-1306.348510742188	-267.9363403320313	1185.807861328125	-1241.514770507813	-23.46100234985352	1073.087036132813	-1253.177978515625	-49.1142044067383	1031.122680664063	-1313.284545898438	50.28045654296876	1021.049499511719	-1276.397094726563	-301.1350402832032	1552.787475585938	-839.2687988281252	-282.6913757324219	1337.115844726563	-704.2167968750001	-235.8413391113282	1326.842163085938	-708.1687011718751	-257.7083740234376	1273.639282226563	-689.2791748046876	-235.0678100585938	1233.420776367188	-683.2278442382814	-266.3801879882813	1198.2138671875	-751.6361694335939	6.453366279602053	1153.167236328125	-815.4902954101565	2.020414829254151	1122.645751953125	-741.9370727539064	85.54437255859376	1128.38134765625	-818.3649902343752	-209.5636138916016	1062.065307617188	-1108.905639648438	-211.5652465820313	1067.918334960938	-856.5532226562502	-402.295379638672	1141.532836914063	-984.6519165039065	-406.6997070312501	1109.294555664063	-1012.645202636719	-405.2758789062501	1108.951293945313	-956.2654418945315	-297.4401855468751	818.667175292969	-1185.85693359375	-268.5693054199219	739.3117065429689	-1175.987060546875	-221.3524627685547	742.1431274414064	-1167.013061523438	-299.6978759765626	688.5806884765626	-1159.589965820313	-308.1929016113282	534.4702758789064	-1131.311767578125	-283.0067138671876	534.7670898437501	-994.0922851562502	-273.7474365234376	370.8164978027344	-1072.087890625	-323.4692687988282	323.5983276367188	-1128.485107421875	-285.7185668945313	321.4155883789063	-1102.613403320313	-295.7782897949219	245.569564819336	-1065.146362304688	-359.6007995605469	112.5482482910157	-1100.02978515625	-328.7469482421876	132.4765319824219	-1009.56689453125	-428.5063781738282	102.2521133422852	-1041.8388671875	-216.6134948730469	56.97641754150392	-1019.631652832031	-208.8699798583985	56.23749160766603	-1068.790283203125	-260.6472778320313	39.91603469848634	-1120.707763671875	-291.2201843261719	768.4942016601565	-756.7221679687501	-252.4557495117188	714.9013061523439	-747.8253173828126	-219.075668334961	715.8798217773439	-752.3129882812501	-277.5116882324219	635.3375854492189	-758.8328247070314	-285.0512390136719	546.8768310546876	-751.8684692382814	-229.3562774658204	531.3295898437501	-878.6670532226565	-237.2744598388672	435.2856750488282	-745.1400756835939	-316.6182861328126	373.3436889648438	-709.8920898437501	-272.1283264160157	361.2698059082032	-714.6594238281251	-260.6900634765626	307.2020874023438	-732.6087036132814	-339.9414978027344	138.026840209961	-696.0293579101564	-296.8843994140626	145.7405242919922	-782.0652465820315	-403.6115112304689	118.7789611816407	-753.8975830078126	-191.977767944336	51.07328033447267	-760.7051391601564	-190.2406005859375	50.85745239257814	-713.0711669921876	-242.8251342773438	41.11524200439454	-667.0100097656251	
194	0.965	-202.5494842529297	1797.346435546875	-1024.406494140625	-362.6802062988282	1727.300659179688	-1082.366821289063	-368.9557495117188	1727.03173828125	-942.011169433594	-392.3893127441407	1561.08642578125	-998.758728027344	-405.7723999023439	1228.68017578125	-988.6116943359377	-246.5248107910157	1509.184814453125	-1009.178405761719	-330.4776611328126	1543.57373046875	-1168.634155273438	-311.0595092773438	1322.244018554688	-1286.719848632813	-262.6830444335938	1323.10546875	-1286.625366210938	-273.7569885253907	1266.178466796875	-1301.261596679688	-235.3137359619141	1226.528930664063	-1307.840087890625	-266.8040771484376	1186.2060546875	-1243.201049804688	-21.74274635314942	1074.981689453125	-1254.899780273438	-47.47589111328126	1032.822021484375	-1314.654541015625	52.46122360229494	1023.176696777344	-1278.069580078125	-301.2574768066407	1552.906372070313	-840.650329589844	-282.6857910156251	1337.468383789063	-705.1538696289064	-235.4822540283204	1327.44580078125	-709.1601562500001	-257.3847351074219	1274.318115234375	-690.0502319335939	-234.4010620117188	1234.061157226563	-683.9028320312501	-265.5079956054688	1198.534545898438	-752.4138793945314	7.857156276702883	1155.5869140625	-815.582214355469	2.953851938247681	1124.307861328125	-742.2811279296876	87.21846008300783	1131.013305664063	-818.088073730469	-210.9677276611329	1061.912475585938	-1109.432739257813	-212.3050537109376	1068.085693359375	-857.3161621093752	-402.682830810547	1141.642456054688	-985.925720214844	-407.3069152832032	1109.336791992188	-1013.51025390625	-405.7817993164064	1109.151611328125	-957.026794433594	-297.4374389648438	818.4062500000002	-1186.390991210938	-268.7342529296876	739.1477661132814	-1176.541259765625	-221.7662048339844	742.0339965820314	-1167.51904296875	-300.0663452148438	688.3952636718751	-1160.161987304688	-308.2774353027344	534.2405395507814	-1131.678100585938	-283.5289001464844	534.8351440429689	-994.5803833007815	-273.9170227050782	370.8110046386719	-1072.319091796875	-323.3963928222657	323.4542846679688	-1128.719970703125	-285.8320007324219	321.3309631347657	-1102.863159179688	-295.8361206054688	245.5409851074219	-1065.291015625	-359.6394042968751	112.4613037109375	-1100.030517578125	-328.7833862304688	132.4373931884766	-1009.560119628906	-428.5011596679689	102.2210311889649	-1041.874145507813	-216.6256256103516	56.96973037719728	-1019.663146972656	-208.7933197021485	56.1553192138672	-1068.8505859375	-260.6137390136719	39.92768478393555	-1120.71240234375	-290.8254394531251	768.805358886719	-757.2090454101564	-251.7406005859376	715.2996215820314	-748.1069946289064	-218.153060913086	716.2278442382814	-752.6328735351564	-276.1328125000001	635.5164794921876	-759.0273437500001	-283.3736877441407	547.1729736328126	-751.9664306640626	-227.8568725585938	531.9597778320314	-878.5521240234377	-235.9838256835938	435.5445251464845	-745.1030883789064	-315.4681701660157	373.9157104492188	-709.9653930664064	-271.0229187011719	361.7301330566407	-714.5877075195314	-259.9266967773438	307.5574035644532	-732.6085205078126	-339.3343505859376	138.641845703125	-696.2179565429689	-296.4667663574219	146.2477416992188	-782.5063476562502	-403.2335510253907	119.5446853637696	-753.9378051757814	-191.97509765625	51.00977325439455	-760.7838745117189	-190.109603881836	50.8727378845215	-713.1404418945314	-242.7799987792969	41.3344955444336	-667.0097656250001	
195	0.97	-202.5104217529297	1797.542846679688	-1025.5830078125	-362.4658813476563	1727.4189453125	-1083.497802734375	-369.0024414062501	1727.068969726563	-943.0569458007815	-392.5052795410157	1561.276000976563	-1000.014221191406	-406.250701904297	1228.896850585938	-989.6104125976565	-246.4860382080079	1509.151123046875	-1010.245971679688	-330.3017578125001	1543.622802734375	-1169.749389648438	-310.7669372558594	1322.490112304688	-1288.126220703125	-262.4668579101563	1323.780029296875	-1288.03759765625	-273.1334533691407	1266.734619140625	-1302.62841796875	-234.1804809570313	1227.286254882813	-1309.40283203125	-265.7647399902344	1186.85302734375	-1244.8779296875	-19.76976203918457	1076.46484375	-1256.297607421875	-45.57625961303712	1034.269897460938	-1316.1728515625	54.00377273559572	1025.012939453125	-1279.6083984375	-301.3521728515626	1553.058471679688	-841.760192871094	-282.6936950683594	1337.799560546875	-706.2160644531251	-235.4635009765626	1328.009033203125	-709.8717041015626	-256.9838562011719	1274.817138671875	-690.8393554687501	-234.0176544189454	1234.506958007813	-684.6033325195314	-264.8572692871094	1198.969970703125	-753.0837402343751	9.158026695251467	1157.801391601563	-816.090270996094	4.154137611389161	1125.925415039063	-742.8051757812501	88.57717895507814	1133.512084960938	-817.7105712890627	-210.5997924804688	1061.857788085938	-1110.498291015625	-212.8296203613282	1068.3271484375	-858.2273559570315	-403.3647460937501	1141.756713867188	-986.6646728515627	-407.816864013672	1109.564086914063	-1014.508728027344	-406.3794250488282	1109.106201171875	-958.0976562500002	-298.0756835937501	818.338562011719	-1187.171508789063	-269.3032531738282	739.0111083984376	-1177.329223632813	-222.1380767822266	741.9216918945314	-1168.169921875	-300.2958984375001	688.2390747070314	-1160.648193359375	-308.5413208007813	534.0308227539064	-1131.874145507813	-283.9980163574219	534.7342529296876	-995.0354003906252	-274.0419006347657	370.8035888671876	-1072.560668945313	-323.4862670898438	323.3401184082032	-1128.989379882813	-285.8633117675782	321.3041992187501	-1103.070190429688	-295.8883056640626	245.5020446777344	-1065.421875	-359.6370239257813	112.2684173583985	-1100.152587890625	-328.8306884765626	132.4271392822266	-1009.593627929688	-428.2880249023439	102.0026016235352	-1041.953735351563	-216.6432800292969	56.96934890747072	-1019.667419433594	-208.8469696044922	56.20410537719728	-1068.80517578125	-260.6329040527344	39.91837310791016	-1120.723876953125	-290.3410339355469	769.054626464844	-757.5678100585939	-250.7940826416016	715.7971191406251	-748.4816894531251	-217.0910034179688	716.9461669921876	-752.9918823242189	-274.9870300292969	635.8095703125001	-759.0964965820314	-281.9259033203126	547.5831298828126	-751.9428100585939	-225.5190429687501	532.4264526367189	-878.8537597656252	-234.4586181640626	436.0143127441407	-745.1326293945314	-314.1917724609376	374.3982543945313	-710.0232543945314	-269.6905822753907	362.2001037597657	-714.7236328125001	-258.8517761230469	307.9160156250001	-732.4609375000001	-338.7305908203126	139.2777709960938	-696.2550659179689	-296.0144348144532	146.8638000488282	-782.7174072265627	-402.574920654297	120.3630676269532	-754.0089721679689	-191.8335113525391	50.99768066406251	-760.9008178710939	-189.8440551757813	50.85466384887697	-713.2456054687501	-242.5833740234376	41.63796615600587	-667.0714111328126	
